<?xml version="1.0" encoding="UTF-8"?>
<!DOCTYPE svg PUBLIC "-//W3C//DTD SVG 1.1//EN" "http://www.w3.org/Graphics/SVG/1.1/DTD/svg11.dtd">
<!-- Creator: CorelDRAW -->
<svg xmlns="http://www.w3.org/2000/svg" xml:space="preserve" width="291.429mm" height="105mm" version="1.1" style="shape-rendering:geometricPrecision; text-rendering:geometricPrecision; image-rendering:optimizeQuality; fill-rule:evenodd; clip-rule:evenodd"
viewBox="0 0 29142.88 10500"
 xmlns:xlink="http://www.w3.org/1999/xlink"
 xmlns:xodm="http://www.corel.com/coreldraw/odm/2003">
 <defs>
  <style type="text/css">
   <![CDATA[
    .fil3 {fill:#373435}
    .fil1 {fill:#F5A6C8}
    .fil0 {fill:#82CEEE}
    .fil2 {fill:#A2C16D}
    .fil4 {fill:#373435;fill-rule:nonzero}
   ]]>
  </style>
 </defs>
 <g id="Camada_x0020_1">
  <metadata id="CorelCorpID_0Corel-Layer"/>
  <path class="fil0" d="M27034.39 1906.75l-2282.88 0c-104.74,0 -190.51,85.77 -190.51,190.51l0 1636.03c0,134.43 32.36,261.56 89.55,374.36 894.88,51.92 1387.2,-399.57 1716.84,-973.88l90.08 88.22c-354.26,776.06 -935.71,1120.36 -1730.8,1008.31 151.97,203.47 394.56,372.49 666.1,372.49l1641.62 0c104.74,0 190.13,-85.76 190.13,-190.51l0 -2315.02c0,-104.74 -85.55,-190.51 -190.13,-190.51z"/>
  <path class="fil1" d="M23529.72 9140.94c538.75,-18.82 1023.71,-97.98 1509.8,-364.45 534.43,-292.96 868.97,-730.75 1163.26,-1250.15l92.91 -163.81 111.14 152.14c44.19,60.55 48.88,68.49 93.07,128.99l41.74 56.99 -28.94 64.71c-268.93,600.79 -596.7,1066.78 -1183.42,1406.39 -571.27,330.38 -1143.12,403.19 -1790.77,337.73l-5.22 418.76c0,150.64 123.34,273.99 273.77,273.99l4711.7 0c150.27,0 273.61,-123.51 273.61,-273.99l0 -4732.91c0,-150.27 -123.34,-273.83 -273.61,-273.83l-3379.03 0c-877.4,0 -1606.44,730.6 -1606.44,1607.99l-3.57 2611.45z"/>
  <path class="fil2" d="M23928.27 257.14l-4610.15 0c-211.35,0 -384.17,173.02 -384.17,384.59l0 4600.35c0,211.56 172.82,384.54 384.17,384.54l3314.75 0c548.71,0 1038.16,-267.01 1345.08,-677.51 -824.56,43.07 -1326.48,-106.07 -1663.47,-285.82 -576.55,-307.3 -950.58,-804.31 -1244.29,-1446.84 39.5,-65.99 79.16,-132.04 118.65,-197.82 356.35,625.43 799.36,1134.11 1417.11,1418.6 460.55,212.15 960.76,312.37 1526,264.23 115.3,-227.72 180.54,-484.59 180.54,-756.12l0 -3303.61c0,-211.57 -172.81,-384.59 -384.22,-384.59z"/>
  <path class="fil3" d="M664.47 7571.68c0,686.24 538.47,1185.16 1210.62,1185.16 672.1,0 1214.96,-498.92 1214.96,-1185.16 0,-681.75 -542.86,-1176.28 -1214.96,-1176.28 -672.15,0 -1210.62,494.53 -1210.62,1176.28zm440.6 0c0,-467.73 347.09,-801.87 770.02,-801.87 427.13,0 774.35,334.14 774.35,801.87 0,472.27 -347.22,810.94 -774.35,810.94 -422.93,0 -770.02,-338.67 -770.02,-810.94zm2135.28 4.54c0,699.42 382.67,1180.62 992.58,1180.62 551.84,0 738.69,-409.94 738.69,-409.94l8.93 0c0,0 -4.4,49.05 -4.4,115.92 0,151.5 80.05,240.62 276.02,240.62l413.81 0 0 -369.87 -182.31 0c-62.52,0 -98.06,-31.14 -98.06,-97.86l0 -2392.62c0,-200.5 -84.58,-285.23 -284.94,-285.23l-427.09 0 0 369.67 182.45 0c62.19,0 97.91,31.33 97.91,98.2l0 565.83c0,84.59 8.94,151.45 8.94,151.45l-8.94 0c0,0 -173.56,-347.61 -694.35,-347.61 -596.31,0 -1019.24,463.39 -1019.24,1180.82zm1077.17 806.4c-373.88,0 -636.57,-316.42 -636.57,-806.4 0,-512.39 293.88,-806.41 645.36,-806.41 431.67,0 640.91,400.86 640.91,801.87 0,574.71 -315.89,810.94 -649.7,810.94zm1436.43 -810.94c0,686.24 538.66,1185.16 1210.62,1185.16 672.1,0 1215.15,-498.92 1215.15,-1185.16 0,-681.75 -543.05,-1176.28 -1215.15,-1176.28 -671.96,0 -1210.62,494.53 -1210.62,1176.28zm440.6 0c0,-467.73 347.28,-801.87 770.02,-801.87 427.27,0 774.55,334.14 774.55,801.87 0,472.27 -347.28,810.94 -774.55,810.94 -422.74,0 -770.02,-338.67 -770.02,-810.94zm2349.11 1131.76l431.53 0 0 -1055.96c0,-111.38 9.07,-213.98 40.26,-302.96 88.79,-325.35 364.95,-552.45 711.89,-552.45 360.55,0 422.88,249.36 422.88,565.78l0 1060.31c0,200.5 84.59,285.28 284.95,285.28l427.27 0 0 -369.87 -182.64 0c-62.18,0 -97.86,-31.14 -97.86,-97.86l0 -975.92c0,-574.71 -240.29,-864.39 -774.41,-864.39 -489.46,0 -756.69,320.82 -845.48,516.79l-9.12 0c0,0 9.12,-57.8 9.12,-129.25l0 -84.39c0,-164.97 -93.7,-249.56 -284.94,-249.56l-413.81 0 0 369.68 182.45 0c62.19,0 97.91,31.33 97.91,98.05l0 1786.72zm2629.33 -824.27c0,753.01 574.24,841.94 858.8,841.94 93.52,0 151.5,-8.74 151.5,-8.74l0 -383.14c0,0 -40.12,8.93 -102.3,8.93 -164.78,0 -476.33,-57.99 -476.33,-508.04l0 -1033.71 538.51 0 0 -347.42 -538.51 0 0 -619.37 -422.93 0 0 619.37 -302.57 0 0 347.42 293.83 0 0 1082.76zm1116.09 -307.49c0,686.24 538.52,1185.16 1210.47,1185.16 672.11,0 1214.97,-498.92 1214.97,-1185.16 0,-681.75 -542.86,-1176.28 -1214.97,-1176.28 -671.95,0 -1210.47,494.53 -1210.47,1176.28zm440.6 0c0,-467.73 347.09,-801.87 769.87,-801.87 427.47,0 774.36,334.14 774.36,801.87 0,472.27 -346.89,810.94 -774.36,810.94 -422.78,0 -769.87,-338.67 -769.87,-810.94zm4083.91 794.42c-24.6,-222.91 198.69,-513.2 366.33,-832.01 48.2,-91.65 87.93,-144.24 162.11,-105.65 30.66,16 49.53,48.86 69.06,77.33 29.33,42.31 13.47,65.57 -10.6,109.51 -61.85,111.91 -168.51,252.09 -232.55,383.87 -106.13,218.03 -91.47,445.66 226.96,485.06 263.02,-16.67 519.98,-58.46 766.48,-142.04 43.99,-15 89.31,-39.93 118.64,-150.12 45.66,-171.84 92.66,-371.53 107.13,-495.52 8.26,-71.12 -2.01,-135.65 74.31,-158.38 46.67,-13.85 97.39,-4.73 146.11,-4.06 96.86,1.19 112.05,38.4 60.8,170.7 -76.66,198.12 -133.93,398.81 -202.7,596.78 -79.67,229.16 -33.53,297.56 196.97,202.03 522.84,-216.69 911.58,-476.66 1054.62,-891.32 30.14,-87.46 40.41,-124.04 91.32,-156.85 28.47,-18.39 64,-34.39 91.47,-52.25 40.45,-26.27 64.38,-12.14 62.52,20.87 -4.21,82.24 -15,175.43 -12.66,256.48 2.53,87.93 -4.68,70.92 45.52,147.25 152.83,232.02 523.51,391.4 912.05,369.67 20.06,-265.7 91.13,-484.06 311.36,-688.96 196.49,-182.31 486.6,-374.07 765.95,-358.88 212.49,11.27 283.61,183.31 241.15,349.95 -39.45,154.98 -221.42,316.75 -346.08,409.94 -170.89,127.52 -396.99,251.89 -637.57,345.55 154.51,392.13 947.4,477.19 2085.9,-96.72 51.05,-25.6 95.04,49.06 49.24,77.86 -233.89,146.58 -632.56,372.2 -1108.55,487.12 -601.99,145.24 -1203.88,141.18 -1348.93,-407.08 -416.34,14.48 -777.94,-72.59 -1065.37,-310.21 -99.44,-82.05 -124.52,-92.32 -220.09,5.93 -253.71,261.16 -583.79,456.93 -885.21,671.62 -503.46,358.69 -714.28,123.32 -592.44,-206.24 -838.07,314.23 -1201.87,248.84 -1336.66,3.21 -1537.16,646.83 -2299.43,119.11 -1890.31,-892 225.96,-558.24 675.64,-1167.15 1541.56,-1782.51 474.6,-337.15 899.21,-213.5 557.18,448.72 -344.21,665.84 -1122.01,1209.94 -1854.25,1788.53 127.86,645.16 907.48,598.16 1639.23,322.82zm993.3 -2141.54c-92.18,82.72 -136.5,166.31 -145.77,249.03 -19.53,173.71 53.78,209.44 181.31,138.51 71.78,-39.79 133.44,-91.51 177.76,-151.64 49.01,-66.54 45.66,-140.85 5.54,-213.31 -70.06,-126.38 -142.85,-90.65 -218.84,-22.59zm-983.32 44.99c139.32,-271.95 23.74,-464.86 -262.54,-256.76 -806.22,585.84 -1155.83,1199.29 -1373.2,1791.25 913.73,-589.91 1418.38,-1109.89 1635.74,-1534.49zm5068.23 1442.98c203.04,-185.03 141.52,-453.4 -163.77,-284.09 -258.63,143.57 -509.67,409.61 -548.78,616.17 187.7,-12.27 407.26,-54.4 712.55,-332.08z"/>
  <path class="fil4" d="M505.88 9523.18l48.05 0 264.17 0c69.25,0 123.37,17.53 162.24,52.26 39.12,34.86 58.51,83.2 58.51,144.52 0,67.78 -19.39,120.84 -58.51,158.91 -38.87,38.4 -92.99,57.45 -162.24,57.45 -90.99,-0.33 -162.92,0 -215.5,1.01l0 300.42 -48 0 -48.72 0 0 -714.57zm96.72 330.56l191.76 0c50.2,0 86.93,-10.6 110.19,-31.81 23.26,-21.25 34.86,-54.59 34.86,-99.91 0,-40.27 -11.6,-69.59 -34.86,-88.31 -23.26,-18.54 -59.99,-27.8 -110.19,-27.8l-191.76 0 0 247.83z"/>
  <polygon class="fil4" points="1656.55,10237.65 1656.55,9523.09 1704.6,9523.09 1753.27,9523.09 1753.27,10152.06 2115.02,10152.06 2115.02,10194.86 2115.02,10237.65 "/>
  <path class="fil4" d="M2914.45 9523.18l54.78 0 55.41 0 256.48 714.57 -51.92 0 -51.92 0 -72.59 -207.05 -285.09 0 -74.99 207.05 -49.53 0 -50.05 0 269.42 -714.57zm-64.19 421.88l224.62 0 -110.04 -316.9 0.34 0 -114.92 316.9z"/>
  <polygon class="fil4" points="3960.24,10237.65 3913.58,10237.65 3867.06,10237.65 3867.06,9523.09 3924.71,9523.09 3983.17,9523.09 4340.38,10103.87 4340.38,9523.09 4387.04,9523.09 4433.56,9523.09 4433.56,10237.65 4380.83,10237.65 4327.72,10237.65 3960.24,9654.86 "/>
  <path class="fil4" d="M5141.43 10153.4c-64.19,-69.25 -96,-159.91 -96,-272.48 0,-112.72 31.81,-203.89 96,-273.1 64.24,-69.45 147.97,-103.98 251.57,-103.98 104.16,0 188.22,34.53 252.22,103.98 63.72,69.21 95.72,160.38 95.72,273.1 0,112.57 -32,203.23 -95.72,272.48 -64,69.21 -148.06,103.59 -252.22,103.59 -103.6,0 -187.33,-34.38 -251.57,-103.59zm431.72 -62.04c45.66,-53.59 68.4,-123.51 68.4,-210.44 0,-87.12 -22.74,-157.52 -68.4,-211.11 -45.66,-53.78 -105.84,-80.52 -180.15,-80.52 -74.13,0 -133.93,26.74 -179.59,80.52 -45.66,53.59 -68.58,123.99 -68.58,211.11 0,86.93 22.92,156.85 68.58,210.44 45.66,53.59 105.46,80.24 179.59,80.24 74.31,0 134.49,-26.65 180.15,-80.24z"/>
  <path class="fil4" d="M6787.59 9730.28c-4.21,-45.18 -21.92,-79.86 -53.11,-104.31 -31.33,-24.41 -73.27,-36.54 -126,-36.54 -54.45,0 -95.71,10.27 -123.84,31.48 -28.14,21.06 -42.32,51.91 -42.32,92.37 0,27.6 9.46,48.19 28.13,61.66 18.91,13.66 56.65,27.13 113.24,40.4l124.37 29.66c66.54,15.86 114.2,39.26 142.72,70.45 28.46,30.66 42.93,74.32 42.93,130.72 0,64.91 -24.59,116.11 -73.6,154.04 -49.24,37.92 -115.58,56.93 -199.35,56.93 -93.33,0 -166.12,-21.88 -218.7,-65.72 -51.06,-43.13 -76.66,-101.93 -76.66,-176.91l0 -5.21 88.79 0c1.67,51.73 20.39,91.85 56.26,119.98 36.25,28.13 86.11,42.27 150.31,42.27 59.32,0 104.31,-10.27 134.97,-30.66 30.85,-20.4 46.19,-50.39 46.19,-89.99 0,-34.19 -10.13,-59.65 -30.33,-76.13 -20.06,-16.19 -60.66,-31.71 -121.51,-46.18l-124.51 -29.66c-62.86,-15 -107.66,-35.73 -134.64,-62.33 -26.61,-26.46 -40.07,-63.19 -40.07,-110.19 0,-68.44 23.26,-122.65 69.73,-162.63 46.33,-39.93 109.04,-59.94 187.89,-59.94 80.34,0 144.19,20.01 191.72,60.13 47.52,40.27 72.98,95.72 76.32,166.31l-88.93 0z"/>
  <path class="fil4" d="M8345.76 10153.4c-64.19,-69.25 -96.05,-159.91 -96.05,-272.48 0,-112.72 31.86,-203.89 96.05,-273.1 64.05,-69.45 147.97,-103.98 251.56,-103.98 104.12,0 188.23,34.53 252.23,103.98 63.72,69.21 95.72,160.38 95.72,273.1 0,112.57 -32,203.23 -95.72,272.48 -64,69.21 -148.11,103.59 -252.23,103.59 -103.59,0 -187.51,-34.38 -251.56,-103.59zm431.53 -62.04c45.66,-53.59 68.59,-123.51 68.59,-210.44 0,-87.12 -22.93,-157.52 -68.59,-211.11 -45.66,-53.78 -105.65,-80.52 -179.97,-80.52 -74.12,0 -134.11,26.74 -179.77,80.52 -45.47,53.59 -68.4,123.99 -68.4,211.11 0,86.93 22.93,156.85 68.4,210.44 45.66,53.59 105.65,80.24 179.77,80.24 74.32,0 134.31,-26.65 179.97,-80.24z"/>
  <path class="fil4" d="M9561.87 9523.23l48.05 0 245.16 0c90.79,0 162.77,32.34 216.31,97.05 53.78,64.53 80.38,151.46 80.38,260.64 0,108.85 -27.46,195.44 -82.19,259.97 -54.93,64.57 -128.91,96.71 -222.29,96.71l-237.37 0 -48.05 0 0 -714.37zm96.72 631.84l176.57 0c69.45,0 122.85,-23.78 160.58,-71.45 37.59,-47.67 56.45,-115.25 56.45,-202.7 0,-87.79 -18,-155.7 -54.4,-203.37 -36.25,-47.86 -87.64,-71.79 -154.17,-71.79l-185.03 0 0 549.31z"/>
  <path class="fil4" d="M10831.52 10153.4c-64.05,-69.25 -96.05,-159.91 -96.05,-272.48 0,-112.72 32,-203.89 96.05,-273.1 64.19,-69.45 147.92,-103.98 251.56,-103.98 104.12,0 188.18,34.53 252.23,103.98 63.86,69.21 95.71,160.38 95.71,273.1 0,112.57 -31.85,203.23 -95.71,272.48 -64.05,69.21 -148.11,103.59 -252.23,103.59 -103.64,0 -187.37,-34.38 -251.56,-103.59zm431.67 -62.04c45.66,-53.59 68.39,-123.51 68.39,-210.44 0,-87.12 -22.73,-157.52 -68.39,-211.11 -45.66,-53.78 -105.79,-80.52 -180.11,-80.52 -74.13,0 -133.97,26.74 -179.63,80.52 -45.66,53.59 -68.59,123.99 -68.59,211.11 0,86.93 22.93,156.85 68.59,210.44 45.66,53.59 105.5,80.24 179.63,80.24 74.32,0 134.45,-26.65 180.11,-80.24z"/>
  <polygon class="fil4" points="12136.03,10237.65 12089.37,10237.65 12042.71,10237.65 12042.71,9523.09 12100.5,9523.09 12158.96,9523.09 12516.17,10103.87 12516.17,9523.09 12562.83,9523.09 12609.35,9523.09 12609.35,10237.65 12556.43,10237.65 12503.51,10237.65 12136.03,9654.86 "/>
  <polygon class="fil4" points="13437.73,9608.73 13196.44,9608.73 13196.44,9566.07 13196.44,9523.09 13775.55,9523.09 13775.55,9566.07 13775.55,9608.73 13534.45,9608.73 13534.45,10237.7 13486.25,10237.7 13437.73,10237.7 "/>
  <path class="fil4" d="M14421.86 10153.4c-64.24,-69.25 -96.05,-159.91 -96.05,-272.48 0,-112.72 31.81,-203.89 96.05,-273.1 64.19,-69.45 147.92,-103.98 251.56,-103.98 104.12,0 188.18,34.53 252.23,103.98 63.66,69.21 95.66,160.38 95.66,273.1 0,112.57 -32,203.23 -95.66,272.48 -64.05,69.21 -148.11,103.59 -252.23,103.59 -103.64,0 -187.37,-34.38 -251.56,-103.59zm431.48 -62.04c45.66,-53.59 68.58,-123.51 68.58,-210.44 0,-87.12 -22.92,-157.52 -68.58,-211.11 -45.47,-53.78 -105.65,-80.52 -179.92,-80.52 -74.18,0 -134.16,26.74 -179.82,80.52 -45.47,53.59 -68.4,123.99 -68.4,211.11 0,86.93 22.93,156.85 68.4,210.44 45.66,53.59 105.64,80.24 179.82,80.24 74.27,0 134.45,-26.65 179.92,-80.24z"/>
  <polygon class="fil4" points="15633.09,10237.65 15633.09,9523.09 15681.14,9523.09 15729.81,9523.09 15729.81,10152.06 16091.41,10152.06 16091.41,10194.86 16091.41,10237.65 "/>
  <path class="fil4" d="M16742.4 10153.4c-64.04,-69.25 -96.04,-160.1 -96.04,-272.48 0,-112.72 32,-203.89 96.04,-273.1 64.01,-69.26 147.92,-103.98 251.57,-103.98 104.31,0 188.37,34.72 252.22,103.98 63.86,69.21 95.86,160.38 95.86,273.1 0,112.38 -32,203.23 -95.86,272.48 -63.85,69.21 -147.91,103.59 -252.22,103.59 -103.65,0 -187.56,-34.38 -251.57,-103.59zm431.67 -62.04c45.66,-53.59 68.4,-123.66 68.4,-210.44 0,-87.12 -22.74,-157.52 -68.4,-211.11 -45.66,-53.78 -105.64,-80.52 -180.1,-80.52 -74.13,0 -134.12,26.74 -179.78,80.52 -45.52,53.59 -68.25,123.99 -68.25,211.11 0,86.78 22.73,156.85 68.25,210.44 45.66,53.44 105.65,80.24 179.78,80.24 74.46,0 134.44,-26.8 180.1,-80.24zm-227.1 -638.05l88.26 -140.04 107.32 0 -128.19 140.04 -67.39 0z"/>
  <path class="fil4" d="M18257.64 10257.14c-99.05,0 -179.1,-34.68 -240.24,-103.79 -61.18,-69.06 -91.7,-160.05 -91.7,-272.43 0,-112.72 31.04,-203.89 93.71,-273.15 62.52,-69.25 144.05,-103.93 245.16,-103.93 77.85,0 145.05,21.88 201.17,65.53 56.26,43.65 89.12,99.73 98.92,168.31l-93.19 0c-9.26,-47.33 -32.19,-83.91 -69.06,-109.66 -36.92,-25.79 -84.78,-38.59 -143.76,-38.59 -69.4,0 -125.86,26.94 -168.98,80.86 -42.99,53.92 -64.53,124.71 -64.53,211.97 0,93.18 20.87,165.11 62.52,216.02 41.41,50.68 100.06,76.14 175.91,76.14 73.45,0 132.92,-26.94 178.05,-80.53 7.26,-8.45 13.66,-17.39 19.58,-26.8 7.55,-12.65 14.33,-30.32 19.68,-53.06 5.25,-22.59 7.93,-44.18 7.93,-64.72l0 -8.59 -223.76 0 0 -81.53 312.41 0 0 377.89 -60.18 0 -23.22 -89.79 -5.25 6.25c-58.6,69.07 -135.64,103.6 -231.17,103.6z"/>
  <polygon class="fil4" points="19238.95,9523.23 19286.95,9523.23 19335.67,9523.23 19335.67,10237.79 19287.62,10237.79 19238.95,10237.79 "/>
  <path class="fil4" d="M20599.25 9974.72c-12.27,88.12 -45.99,157.23 -101.11,207.29 -55.26,50.01 -125.18,75.13 -209.58,75.13 -98.39,0 -176.76,-34.06 -235.22,-101.93 -58.46,-67.91 -87.6,-159.42 -87.6,-274.34 0,-114.91 30.33,-206.57 90.99,-274.96 60.66,-68.06 142.19,-102.12 244.3,-102.12 80.72,0 146.91,20.73 198.83,62.19 51.54,41.6 82.72,98.58 93.18,171.51l-93.18 0c-9.26,-47.33 -31,-83.72 -65.91,-109.52 -34.67,-25.79 -79.52,-38.59 -134.26,-38.59 -71.64,0 -128.57,26.32 -170.84,78.86 -42.46,52.77 -63.52,123.51 -63.52,212.63 0,94.52 19.67,166.64 58.93,216.36 39.26,49.53 96.39,74.32 171.04,74.32 55.45,0 101.25,-17.19 137.98,-51.25 36.59,-34.34 60.85,-82.72 72.79,-145.58l93.18 0z"/>
  <path class="fil4" d="M21272.22 10153.4c-64.05,-69.25 -96.05,-159.91 -96.05,-272.48 0,-112.72 32,-203.89 96.05,-273.1 64,-69.45 147.91,-103.98 251.56,-103.98 104.12,0 188.18,34.53 252.23,103.98 63.66,69.21 95.71,160.38 95.71,273.1 0,112.57 -32.05,203.23 -95.71,272.48 -64.05,69.21 -148.11,103.59 -252.23,103.59 -103.65,0 -187.56,-34.38 -251.56,-103.59zm431.66 -62.04c45.67,-53.59 68.4,-123.51 68.4,-210.44 0,-87.12 -22.73,-157.52 -68.4,-211.11 -45.66,-53.78 -105.83,-80.52 -180.1,-80.52 -74.18,0 -134.12,26.74 -179.64,80.52 -45.66,53.59 -68.58,123.99 -68.58,211.11 0,86.93 22.92,156.85 68.58,210.44 45.52,53.59 105.46,80.24 179.64,80.24 74.27,0 134.44,-26.65 180.1,-80.24z"/>
  <path class="fil4" d="M22918.27 9730.28c-4.2,-45.18 -21.87,-79.86 -53.06,-104.31 -31.33,-24.41 -73.31,-36.54 -126.04,-36.54 -54.4,0 -95.67,10.27 -123.85,31.48 -28.13,21.06 -42.27,51.91 -42.27,92.37 0,27.6 9.41,48.19 28.13,61.66 18.87,13.66 56.6,27.13 113.25,40.4l124.18 29.66c66.72,15.86 114.39,39.26 142.85,70.45 28.47,30.66 42.99,74.32 42.99,130.72 0,64.91 -24.6,116.11 -73.65,154.04 -49.2,37.92 -115.39,56.93 -199.31,56.93 -93.38,0 -166.16,-21.88 -218.7,-65.72 -51.06,-43.13 -76.66,-101.93 -76.66,-176.91l0 -5.21 88.79 0c1.67,51.73 20.39,91.85 56.26,119.98 36.25,28.13 86.12,42.27 150.31,42.27 59.32,0 104.31,-10.27 134.97,-30.66 30.81,-20.4 46.14,-50.39 46.14,-89.99 0,-34.19 -10.08,-59.65 -30.14,-76.13 -20.25,-16.19 -60.84,-31.71 -121.65,-46.18l-124.51 -29.66c-62.85,-15 -107.7,-35.73 -134.64,-62.33 -26.6,-26.46 -40.12,-63.19 -40.12,-110.19 0,-68.44 23.26,-122.65 69.78,-162.63 46.33,-39.93 108.99,-59.94 187.85,-59.94 80.38,0 144.24,20.01 191.76,60.13 47.52,40.27 72.93,95.72 76.32,166.31l-88.98 0z"/>
 </g>
</svg>
